<svg version="1.1" xmlns="http://www.w3.org/2000/svg" viewBox="0 0 512 512" width="512" height="512">
        <rect x="0" y="0" width="512" height="512" fill="rgb(52, 241, 2)" />
<defs><clipPath id="clip-0"><rect x="0" y="0" width="512" height="512"/></clipPath></defs>
<g clip-path="url(#clip-0)">
<line x1="111.38792170896124" y1="265.3853612033841" x2="182.14820900846507" y2="181.98792820485653" stroke="rgb(231, 206, 167)" stroke-width="2.5190688053653467" stroke-linecap="round" clip-path="url(#clip-0)"/>
<circle cx="211.05934615174232" cy="21.665536008961055" r="149.56883639815607" fill="rgb(86, 202, 253)" clip-path="url(#clip-0)"/>
<circle cx="252.38129925483196" cy="213.26300205611557" r="39.208971645684215" fill="rgb(101, 162, 150)" clip-path="url(#clip-0)"/>
<circle cx="328.5251162569404" cy="300.5877292829791" r="158.9543700939925" fill="rgb(127, 114, 222)" clip-path="url(#clip-0)"/>
<circle cx="58.26453975318918" cy="457.0005413619766" r="14.089967163257988" fill="rgb(136, 79, 232)" clip-path="url(#clip-0)"/>
<circle cx="302.918013461449" cy="28.403744898045545" r="112.65840893173498" fill="rgb(248, 147, 235)" clip-path="url(#clip-0)"/>
<rect x="155.33160336504025" y="397.6551250052967" width="433.14072893029544" height="14.575290093933177" fill="rgb(49, 90, 193)" />
<defs><clipPath id="clip-1"><rect x="155.33160336504025" y="397.6551250052967" width="433.14072893029544" height="14.575290093933177"/></clipPath></defs>
<g clip-path="url(#clip-1)">
<circle cx="211.93809034267255" cy="399.42946865700554" r="41.38600622472768" fill="rgb(145, 89, 129)" clip-path="url(#clip-1)"/>
<circle cx="213.41408323113336" cy="399.78827274417176" r="61.71272354396493" fill="rgb(66, 205, 250)" clip-path="url(#clip-1)"/>
<circle cx="372.5239489875635" cy="412.0292603122418" r="42.82907390468933" fill="rgb(188, 136, 169)" clip-path="url(#clip-1)"/>
<circle cx="419.0368464532186" cy="405.48830017458505" r="76.22824410814238" fill="rgb(122, 105, 154)" clip-path="url(#clip-1)"/>
<rect x="345.64086685575796" y="428.88471889838775" width="46.40456567266906" height="3.2335167545280656" fill="rgb(89, 73, 34)" />
<defs><clipPath id="clip-2"><rect x="345.64086685575796" y="428.88471889838775" width="46.40456567266906" height="3.2335167545280656"/></clipPath></defs>
<g clip-path="url(#clip-2)">
<line x1="380.92712310959956" y1="430.6383971690651" x2="382.67548747528275" y2="431.7617159532006" stroke="rgb(63, 12, 228)" stroke-width="0.1395549464589535" stroke-linecap="round" clip-path="url(#clip-2)"/>
<line x1="377.1754560773674" y1="431.93386997130165" x2="364.0427675240429" y2="429.44171987204464" stroke="rgb(134, 212, 82)" stroke-width="0.2732149163176296" stroke-linecap="round" clip-path="url(#clip-2)"/>
<line x1="352.4950520719776" y1="429.4201053644048" x2="346.0226437847749" y2="431.8187906485073" stroke="rgb(139, 182, 248)" stroke-width="0.21000298450471344" stroke-linecap="round" clip-path="url(#clip-2)"/>
<circle cx="377.41957050796333" cy="431.43404314714724" r="7.146240057939227" fill="rgb(237, 90, 204)" clip-path="url(#clip-2)"/>
<rect x="368.5706057406321" y="458.5570568262975" width="28.932179102094285" height="1.4077932688876655" fill="rgb(229, 52, 121)" />
<defs><clipPath id="clip-3"><rect x="368.5706057406321" y="458.5570568262975" width="28.932179102094285" height="1.4077932688876655"/></clipPath></defs>
<g clip-path="url(#clip-3)">
</g>
<rect x="370.1165585128039" y="449.14902107834183" width="33.98432147600652" height="2.2521660415768547" fill="rgb(66, 183, 143)" />
<defs><clipPath id="clip-4"><rect x="370.1165585128039" y="449.14902107834183" width="33.98432147600652" height="2.2521660415768547"/></clipPath></defs>
<g clip-path="url(#clip-4)">
</g>
<rect x="355.9681351669504" y="466.886460575768" width="22.97389027223756" height="2.0037736789536025" fill="rgb(140, 66, 176)" />
<defs><clipPath id="clip-5"><rect x="355.9681351669504" y="466.886460575768" width="22.97389027223756" height="2.0037736789536025"/></clipPath></defs>
<g clip-path="url(#clip-5)">
</g>
</g>
<rect x="420.0767304408425" y="522.7850321062474" width="111.6090995588837" height="5.577719352523873" fill="rgb(187, 242, 89)" />
<defs><clipPath id="clip-6"><rect x="420.0767304408425" y="522.7850321062474" width="111.6090995588837" height="5.577719352523873"/></clipPath></defs>
<g clip-path="url(#clip-6)">
<line x1="453.2125128939117" y1="525.5480786670809" x2="495.4192112482737" y2="525.6303730811942" stroke="rgb(79, 120, 137)" stroke-width="0.41013866469858273" stroke-linecap="round" clip-path="url(#clip-6)"/>
<line x1="461.48005892436674" y1="525.4990476408318" x2="500.38289758224613" y2="527.7198800064098" stroke="rgb(52, 50, 34)" stroke-width="0.8559726341142383" stroke-linecap="round" clip-path="url(#clip-6)"/>
<line x1="433.0033326667468" y1="525.5779605038167" x2="443.3294478372522" y2="528.3421828724564" stroke="rgb(30, 41, 174)" stroke-width="0.8430619688733897" stroke-linecap="round" clip-path="url(#clip-6)"/>
<line x1="429.94385380991883" y1="528.2322834252997" x2="432.1281265079853" y2="525.853484143923" stroke="rgb(150, 44, 229)" stroke-width="1.0024383470619755" stroke-linecap="round" clip-path="url(#clip-6)"/>
<circle cx="480.8293198771991" cy="526.1055329600802" r="19.938274835472374" fill="rgb(181, 139, 155)" clip-path="url(#clip-6)"/>
<circle cx="511.7290147105687" cy="527.8098909078224" r="24.078413626007965" fill="rgb(80, 235, 244)" clip-path="url(#clip-6)"/>
<circle cx="423.21242395422183" cy="524.6041520357307" r="10.43827296174068" fill="rgb(67, 112, 97)" clip-path="url(#clip-6)"/>
<circle cx="434.7355265994154" cy="524.2146103144769" r="5.1938324575589165" fill="rgb(115, 20, 140)" clip-path="url(#clip-6)"/>
<rect x="487.9111858814089" y="606.0560765031025" width="34.168353904443556" height="3.4491030847352384" fill="rgb(171, 218, 233)" />
<defs><clipPath id="clip-7"><rect x="487.9111858814089" y="606.0560765031025" width="34.168353904443556" height="3.4491030847352384"/></clipPath></defs>
<g clip-path="url(#clip-7)">
</g>
<rect x="410.10298829055847" y="524.1457525631414" width="21.66617568262654" height="3.9649235863550563" fill="rgb(71, 162, 242)" />
<defs><clipPath id="clip-8"><rect x="410.10298829055847" y="524.1457525631414" width="21.66617568262654" height="3.9649235863550563"/></clipPath></defs>
<g clip-path="url(#clip-8)">
</g>
<rect x="445.0371611171503" y="538.1884624491206" width="88.87518642519699" height="4.412276636109695" fill="rgb(196, 70, 98)" />
<defs><clipPath id="clip-9"><rect x="445.0371611171503" y="538.1884624491206" width="88.87518642519699" height="4.412276636109695"/></clipPath></defs>
<g clip-path="url(#clip-9)">
</g>
</g>
</g>
<rect x="307.02712081157426" y="409.8160719559912" width="141.36302570227127" height="120.35556941422311" fill="rgb(59, 208, 22)" />
<defs><clipPath id="clip-10"><rect x="307.02712081157426" y="409.8160719559912" width="141.36302570227127" height="120.35556941422311"/></clipPath></defs>
<g clip-path="url(#clip-10)">
<circle cx="327.23782896704637" cy="477.3668517000468" r="43.27846380062208" fill="rgb(60, 94, 251)" clip-path="url(#clip-10)"/>
<circle cx="401.91841314271676" cy="433.32282633520504" r="14.50920655210003" fill="rgb(115, 2, 30)" clip-path="url(#clip-10)"/>
<circle cx="318.4727064629056" cy="513.6224559998884" r="11.977955042820701" fill="rgb(56, 90, 203)" clip-path="url(#clip-10)"/>
<circle cx="365.17984984746164" cy="513.6499791725494" r="21.379136492490048" fill="rgb(39, 121, 193)" clip-path="url(#clip-10)"/>
<circle cx="364.41045881466937" cy="424.8115868675274" r="3.279676691008072" fill="rgb(53, 237, 54)" clip-path="url(#clip-10)"/>
<rect x="326.55617286778926" y="520.243956834565" width="77.51042703604332" height="28.851255182472237" fill="rgb(1, 40, 197)" />
<defs><clipPath id="clip-11"><rect x="326.55617286778926" y="520.243956834565" width="77.51042703604332" height="28.851255182472237"/></clipPath></defs>
<g clip-path="url(#clip-11)">
<line x1="353.9987403902246" y1="536.6049128294568" x2="337.20299590717934" y2="521.0085908220245" stroke="rgb(241, 192, 162)" stroke-width="0.41927074977010753" stroke-linecap="round" clip-path="url(#clip-11)"/>
<line x1="361.728601651487" y1="529.8234588605939" x2="376.3298502149678" y2="541.1553632372455" stroke="rgb(242, 182, 41)" stroke-width="0.5523537407489634" stroke-linecap="round" clip-path="url(#clip-11)"/>
<line x1="350.528386044819" y1="543.7252037907958" x2="382.38959362418916" y2="527.4160772535463" stroke="rgb(19, 19, 199)" stroke-width="0.6962642393000652" stroke-linecap="round" clip-path="url(#clip-11)"/>
<circle cx="397.9537420063357" cy="535.1540858266386" r="6.270715942919152" fill="rgb(136, 214, 251)" clip-path="url(#clip-11)"/>
<circle cx="390.15328675633884" cy="525.6409525277577" r="1.1700610965121419" fill="rgb(56, 143, 16)" clip-path="url(#clip-11)"/>
<circle cx="389.0813176463" cy="545.9230926136352" r="13.289851328703223" fill="rgb(120, 28, 141)" clip-path="url(#clip-11)"/>
<circle cx="388.04009360356935" cy="538.2315865903369" r="7.674893784036986" fill="rgb(113, 182, 98)" clip-path="url(#clip-11)"/>
<circle cx="371.88400404724365" cy="543.543594659807" r="11.651677467454384" fill="rgb(233, 140, 84)" clip-path="url(#clip-11)"/>
<rect x="360.7356708209695" y="568.4539757013179" width="56.91495187429592" height="17.248902855126868" fill="rgb(250, 192, 63)" />
<defs><clipPath id="clip-12"><rect x="360.7356708209695" y="568.4539757013179" width="56.91495187429592" height="17.248902855126868"/></clipPath></defs>
<g clip-path="url(#clip-12)">
</g>
<rect x="308.06700326215355" y="545.0806170113948" width="41.26890762606348" height="27.727509531552503" fill="rgb(163, 129, 99)" />
<defs><clipPath id="clip-13"><rect x="308.06700326215355" y="545.0806170113948" width="41.26890762606348" height="27.727509531552503"/></clipPath></defs>
<g clip-path="url(#clip-13)">
</g>
</g>
<rect x="427.97875152418567" y="356.54145027831447" width="0.705441254523429" height="108.66114368054392" fill="rgb(246, 102, 14)" />
<defs><clipPath id="clip-14"><rect x="427.97875152418567" y="356.54145027831447" width="0.705441254523429" height="108.66114368054392"/></clipPath></defs>
<g clip-path="url(#clip-14)">
<circle cx="428.1929752179044" cy="396.6122932249604" r="26.969990699156682" fill="rgb(240, 254, 3)" clip-path="url(#clip-14)"/>
<circle cx="428.2465939048913" cy="397.0298031037555" r="4.093850544402842" fill="rgb(192, 18, 239)" clip-path="url(#clip-14)"/>
<rect x="428.3720584236799" y="348.6461194334538" width="0.4261775155339455" height="16.87147719829542" fill="rgb(77, 159, 203)" />
<defs><clipPath id="clip-15"><rect x="428.3720584236799" y="348.6461194334538" width="0.4261775155339455" height="16.87147719829542"/></clipPath></defs>
<g clip-path="url(#clip-15)">
</g>
</g>
</g>
<rect x="-110.1117635495583" y="257.8347835557919" width="402.46521881907245" height="353.4949451639956" fill="rgb(156, 17, 42)" />
<defs><clipPath id="clip-16"><rect x="-110.1117635495583" y="257.8347835557919" width="402.46521881907245" height="353.4949451639956"/></clipPath></defs>
<g clip-path="url(#clip-16)">
<line x1="92.38140378076659" y1="359.11740768458367" x2="101.34413324492857" y2="501.38556110630276" stroke="rgb(136, 39, 58)" stroke-width="4.15584003552989" stroke-linecap="round" clip-path="url(#clip-16)"/>
<circle cx="-0.873775254210102" cy="477.1030580336417" r="18.10737294529928" fill="rgb(65, 136, 47)" clip-path="url(#clip-16)"/>
<circle cx="59.088408139018384" cy="307.8835111497927" r="120.59285523969851" fill="rgb(133, 140, 240)" clip-path="url(#clip-16)"/>
<circle cx="-47.17128335189978" cy="591.2273968869999" r="75.18727491832313" fill="rgb(175, 225, 243)" clip-path="url(#clip-16)"/>
<circle cx="287.2076352969036" cy="285.5190851396686" r="42.5841381303279" fill="rgb(151, 98, 124)" clip-path="url(#clip-16)"/>
</g>
</g>

       </svg>
