<svg version="1.1" xmlns="http://www.w3.org/2000/svg" viewBox="0 0 512 512" width="512" height="512">
        <rect x="0" y="0" width="512" height="512" fill="rgb(151, 228, 14)" />
<defs><clipPath id="clip-0"><rect x="0" y="0" width="512" height="512"/></clipPath></defs>
<g clip-path="url(#clip-0)">
<line x1="330.46443519504106" y1="407.4157204235962" x2="488.2297050449866" y2="145.08767172144883" stroke="rgb(96, 202, 9)" stroke-width="0.16319917421152627" stroke-linecap="round" clip-path="url(#clip-0)"/>
<line x1="76.79844419720092" y1="408.65667674425043" x2="85.92801634647333" y2="120.75878792119687" stroke="rgb(132, 174, 32)" stroke-width="4.034652005545054" stroke-linecap="round" clip-path="url(#clip-0)"/>
<line x1="113.21209531846841" y1="293.29311464486824" x2="347.5968080099501" y2="485.2604371306329" stroke="rgb(41, 14, 137)" stroke-width="5.399159998279504" stroke-linecap="round" clip-path="url(#clip-0)"/>
<line x1="269.4386421247758" y1="393.78850062679516" x2="487.69594117244066" y2="170.44226230125724" stroke="rgb(66, 141, 87)" stroke-width="5.728874928579156" stroke-linecap="round" clip-path="url(#clip-0)"/>
<line x1="236.02794940280484" y1="76.25022527541444" x2="187.54281242782275" y2="372.3986735341712" stroke="rgb(87, 73, 157)" stroke-width="2.3860792252775265" stroke-linecap="round" clip-path="url(#clip-0)"/>
<rect x="98.06332771775456" y="72.31619028506717" width="356.47134212595785" height="180.77050969689657" fill="rgb(252, 191, 0)" />
<defs><clipPath id="clip-1"><rect x="98.06332771775456" y="72.31619028506717" width="356.47134212595785" height="180.77050969689657"/></clipPath></defs>
<g clip-path="url(#clip-1)">
<line x1="435.2739710579914" y1="196.31200066208766" x2="138.57519182396655" y2="236.18043692993817" stroke="rgb(38, 122, 90)" stroke-width="3.551016267377695" stroke-linecap="round" clip-path="url(#clip-1)"/>
<line x1="276.7527888509002" y1="209.4286127509141" x2="161.87978393349516" y2="227.90324280395683" stroke="rgb(177, 226, 252)" stroke-width="1.242931862838577" stroke-linecap="round" clip-path="url(#clip-1)"/>
<circle cx="394.7749243402808" cy="112.040370176549" r="95.54335657773025" fill="rgb(123, 219, 99)" clip-path="url(#clip-1)"/>
<circle cx="137.96370549492755" cy="213.23228810756075" r="89.73152226509984" fill="rgb(164, 170, 172)" clip-path="url(#clip-1)"/>
<circle cx="224.97665992683756" cy="242.39593967970123" r="18.755452580326697" fill="rgb(11, 122, 207)" clip-path="url(#clip-1)"/>
<circle cx="228.64203803445898" cy="208.1569574630265" r="35.17602706739287" fill="rgb(221, 42, 199)" clip-path="url(#clip-1)"/>
<circle cx="148.07161876773722" cy="91.21313593696466" r="41.04987699031737" fill="rgb(207, 197, 211)" clip-path="url(#clip-1)"/>
<rect x="250.43860959479858" y="302.5164347199127" width="18.762840857165127" height="33.6804832507799" fill="rgb(98, 214, 241)" />
<defs><clipPath id="clip-2"><rect x="250.43860959479858" y="302.5164347199127" width="18.762840857165127" height="33.6804832507799"/></clipPath></defs>
<g clip-path="url(#clip-2)">
<line x1="257.43962303026507" y1="326.25899785537916" x2="258.83478032648577" y2="314.992205874367" stroke="rgb(141, 151, 178)" stroke-width="0.165464426393203" stroke-linecap="round" clip-path="url(#clip-2)"/>
<circle cx="264.5941028843372" cy="310.84532221670645" r="5.385974036639844" fill="rgb(143, 239, 23)" clip-path="url(#clip-2)"/>
<rect x="253.58309966266768" y="303.7982888030222" width="9.385407823627496" height="7.11218430188808" fill="rgb(37, 203, 185)" />
<defs><clipPath id="clip-3"><rect x="253.58309966266768" y="303.7982888030222" width="9.385407823627496" height="7.11218430188808"/></clipPath></defs>
<g clip-path="url(#clip-3)">
</g>
</g>
<rect x="248.1866806521577" y="308.48680032553443" width="128.90588567835985" height="105.9902050996152" fill="rgb(5, 248, 23)" />
<defs><clipPath id="clip-4"><rect x="248.1866806521577" y="308.48680032553443" width="128.90588567835985" height="105.9902050996152"/></clipPath></defs>
<g clip-path="url(#clip-4)">
<line x1="362.0158378702056" y1="360.3282749774628" x2="248.9407867874176" y2="351.4820333995937" stroke="rgb(110, 12, 175)" stroke-width="0.09745989950081864" stroke-linecap="round" clip-path="url(#clip-4)"/>
<line x1="290.3492988772714" y1="398.56900189504114" x2="258.16257542147497" y2="382.1702237943873" stroke="rgb(55, 37, 45)" stroke-width="1.579092778931865" stroke-linecap="round" clip-path="url(#clip-4)"/>
<line x1="319.0258358315015" y1="399.1625269390868" x2="333.2301255263655" y2="313.0180945547344" stroke="rgb(34, 120, 231)" stroke-width="0.8973563401149537" stroke-linecap="round" clip-path="url(#clip-4)"/>
<circle cx="318.15823768341465" cy="339.69483702381996" r="6.5690888005916985" fill="rgb(14, 131, 99)" clip-path="url(#clip-4)"/>
<circle cx="263.6975827809303" cy="329.0927339601745" r="22.56376109344571" fill="rgb(101, 172, 180)" clip-path="url(#clip-4)"/>
<circle cx="255.05375930854586" cy="324.15606498234484" r="21.348997138485213" fill="rgb(13, 66, 161)" clip-path="url(#clip-4)"/>
<circle cx="338.9740117872019" cy="351.1357068396587" r="27.62426859817994" fill="rgb(175, 81, 89)" clip-path="url(#clip-4)"/>
<circle cx="335.29889668431935" cy="355.8109925689636" r="33.491223544853334" fill="rgb(183, 193, 203)" clip-path="url(#clip-4)"/>
<rect x="245.13166063001975" y="330.34851951530953" width="107.84336760371905" height="19.296801137760443" fill="rgb(96, 233, 189)" />
<defs><clipPath id="clip-5"><rect x="245.13166063001975" y="330.34851951530953" width="107.84336760371905" height="19.296801137760443"/></clipPath></defs>
<g clip-path="url(#clip-5)">
</g>
</g>
</g>
<rect x="286.40399846974105" y="227.80178460867745" width="41.82544245682942" height="295.3325331343583" fill="rgb(137, 51, 103)" />
<defs><clipPath id="clip-6"><rect x="286.40399846974105" y="227.80178460867745" width="41.82544245682942" height="295.3325331343583"/></clipPath></defs>
<g clip-path="url(#clip-6)">
<line x1="287.34521738622806" y1="280.7409290420372" x2="324.39326671659694" y2="312.38081730132427" stroke="rgb(205, 174, 247)" stroke-width="1.2679214342079383" stroke-linecap="round" clip-path="url(#clip-6)"/>
<line x1="322.03020837734965" y1="337.58033363203106" x2="303.5248662568446" y2="433.2637875896727" stroke="rgb(95, 31, 145)" stroke-width="0.15049741003296954" stroke-linecap="round" clip-path="url(#clip-6)"/>
<line x1="328.1969870896221" y1="397.7433278169523" x2="287.45059323977455" y2="500.6346500823513" stroke="rgb(68, 201, 144)" stroke-width="2.4122644203718933" stroke-linecap="round" clip-path="url(#clip-6)"/>
<line x1="314.8581581067593" y1="400.51861577054353" x2="294.40795389195875" y2="250.9995803843519" stroke="rgb(107, 207, 146)" stroke-width="0.7784973337184171" stroke-linecap="round" clip-path="url(#clip-6)"/>
<line x1="315.0424769668252" y1="252.56463108136776" x2="316.30692738229226" y2="257.9586820509348" stroke="rgb(240, 168, 141)" stroke-width="1.6258295788005541" stroke-linecap="round" clip-path="url(#clip-6)"/>
<circle cx="292.09586447785927" cy="485.50516324109344" r="69.86475307577355" fill="rgb(64, 64, 30)" clip-path="url(#clip-6)"/>
<circle cx="304.3141000729254" cy="345.57530453650077" r="62.09746787767111" fill="rgb(4, 54, 6)" clip-path="url(#clip-6)"/>
<circle cx="309.43223461523445" cy="441.31764444729777" r="31.913358995116944" fill="rgb(54, 168, 249)" clip-path="url(#clip-6)"/>
</g>
<rect x="200.28910320270487" y="-115.05902104603948" width="431.5318643186243" height="239.44470541045058" fill="rgb(73, 232, 115)" />
<defs><clipPath id="clip-7"><rect x="200.28910320270487" y="-115.05902104603948" width="431.5318643186243" height="239.44470541045058"/></clipPath></defs>
<g clip-path="url(#clip-7)">
<circle cx="570.2849288826394" cy="-76.43239210088416" r="51.61666413792107" fill="rgb(151, 57, 177)" clip-path="url(#clip-7)"/>
<circle cx="432.43015168557224" cy="43.67625686659491" r="8.066502799152103" fill="rgb(126, 220, 30)" clip-path="url(#clip-7)"/>
<circle cx="427.8230779489586" cy="-8.86022026368697" r="62.14185394473113" fill="rgb(85, 48, 166)" clip-path="url(#clip-7)"/>
<circle cx="204.18013012849087" cy="-93.77867047049176" r="20.564723286635576" fill="rgb(209, 140, 102)" clip-path="url(#clip-7)"/>
<rect x="110.25323859203982" y="77.71606344570779" width="369.28243492651933" height="147.2040417001826" fill="rgb(144, 170, 221)" />
<defs><clipPath id="clip-8"><rect x="110.25323859203982" y="77.71606344570779" width="369.28243492651933" height="147.2040417001826"/></clipPath></defs>
<g clip-path="url(#clip-8)">
<line x1="129.09077653516434" y1="152.19773814280913" x2="188.74159488111275" y2="107.30113654413228" stroke="rgb(239, 11, 38)" stroke-width="0.2525683833440209" stroke-linecap="round" clip-path="url(#clip-8)"/>
<line x1="278.6139043686232" y1="166.07426468425825" x2="256.1567583936978" y2="165.0741071136033" stroke="rgb(87, 4, 134)" stroke-width="3.235485997726589" stroke-linecap="round" clip-path="url(#clip-8)"/>
<line x1="383.2852648202378" y1="123.55612151414117" x2="336.34826959629913" y2="99.5230198114222" stroke="rgb(105, 209, 139)" stroke-width="3.7723670165291647" stroke-linecap="round" clip-path="url(#clip-8)"/>
<line x1="227.2466015026726" y1="80.55635153941519" x2="394.4149464665345" y2="95.1594697680732" stroke="rgb(107, 117, 43)" stroke-width="2.6014135037305253" stroke-linecap="round" clip-path="url(#clip-8)"/>
<circle cx="208.3972274561592" cy="158.38572215747536" r="96.73315911968588" fill="rgb(29, 158, 89)" clip-path="url(#clip-8)"/>
<circle cx="415.8137612798646" cy="141.59549309009535" r="76.01864283215367" fill="rgb(79, 44, 5)" clip-path="url(#clip-8)"/>
<rect x="294.1463434550032" y="342.30605392264494" width="250.4600190671337" height="20.139909743848996" fill="rgb(21, 48, 135)" />
<defs><clipPath id="clip-9"><rect x="294.1463434550032" y="342.30605392264494" width="250.4600190671337" height="20.139909743848996"/></clipPath></defs>
<g clip-path="url(#clip-9)">
</g>
<rect x="222.69819523199087" y="104.74263041964181" width="153.46894047418306" height="126.75896121381483" fill="rgb(210, 144, 163)" />
<defs><clipPath id="clip-10"><rect x="222.69819523199087" y="104.74263041964181" width="153.46894047418306" height="126.75896121381483"/></clipPath></defs>
<g clip-path="url(#clip-10)">
</g>
<rect x="276.2113012599385" y="370.80337474311614" width="212.28042463594375" height="127.77172553881428" fill="rgb(214, 182, 226)" />
<defs><clipPath id="clip-11"><rect x="276.2113012599385" y="370.80337474311614" width="212.28042463594375" height="127.77172553881428"/></clipPath></defs>
<g clip-path="url(#clip-11)">
</g>
</g>
<rect x="391.1959902938576" y="47.24986177387061" width="90.61968684046879" height="41.707168326710345" fill="rgb(216, 53, 34)" />
<defs><clipPath id="clip-12"><rect x="391.1959902938576" y="47.24986177387061" width="90.61968684046879" height="41.707168326710345"/></clipPath></defs>
<g clip-path="url(#clip-12)">
<circle cx="480.89058630865" cy="53.0946991668179" r="22.350509969179793" fill="rgb(179, 212, 72)" clip-path="url(#clip-12)"/>
<rect x="401.91615981131275" y="99.1610964936655" width="69.68600166411842" height="15.13020125843622" fill="rgb(64, 16, 45)" />
<defs><clipPath id="clip-13"><rect x="401.91615981131275" y="99.1610964936655" width="69.68600166411842" height="15.13020125843622"/></clipPath></defs>
<g clip-path="url(#clip-13)">
</g>
<rect x="415.67586933801675" y="55.42062702773309" width="51.845942782590456" height="3.840529995611445" fill="rgb(174, 58, 99)" />
<defs><clipPath id="clip-14"><rect x="415.67586933801675" y="55.42062702773309" width="51.845942782590456" height="3.840529995611445"/></clipPath></defs>
<g clip-path="url(#clip-14)">
</g>
<rect x="435.05545729938245" y="49.037576340525945" width="81.14637596769975" height="13.190691016249277" fill="rgb(91, 201, 18)" />
<defs><clipPath id="clip-15"><rect x="435.05545729938245" y="49.037576340525945" width="81.14637596769975" height="13.190691016249277"/></clipPath></defs>
<g clip-path="url(#clip-15)">
</g>
</g>
<rect x="253.28563067562294" y="-139.73980931644132" width="296.4109497367011" height="143.64626929572617" fill="rgb(120, 189, 152)" />
<defs><clipPath id="clip-16"><rect x="253.28563067562294" y="-139.73980931644132" width="296.4109497367011" height="143.64626929572617"/></clipPath></defs>
<g clip-path="url(#clip-16)">
<rect x="283.32128079101346" y="-99.52058979587157" width="169.97774173425572" height="58.868598834358146" fill="rgb(163, 22, 41)" />
<defs><clipPath id="clip-17"><rect x="283.32128079101346" y="-99.52058979587157" width="169.97774173425572" height="58.868598834358146"/></clipPath></defs>
<g clip-path="url(#clip-17)">
</g>
</g>
</g>
</g>

       </svg>
