<svg version="1.1" xmlns="http://www.w3.org/2000/svg" viewBox="0 0 512 512" width="512" height="512">
        <rect x="0" y="0" width="512" height="512" fill="rgb(231, 96, 29)" />
<defs><clipPath id="clip-0"><rect x="0" y="0" width="512" height="512"/></clipPath></defs>
<g clip-path="url(#clip-0)">
<line x1="216.7836502459441" y1="297.8072559909154" x2="228.70999436306568" y2="103.34700853250598" stroke="rgb(37, 35, 37)" stroke-width="1.8196701911701914" stroke-linecap="round" clip-path="url(#clip-0)"/>
<line x1="88.1619994139433" y1="69.5045168421172" x2="394.610537846028" y2="158.15190718651678" stroke="rgb(37, 35, 37)" stroke-width="6.560332191344873" stroke-linecap="round" clip-path="url(#clip-0)"/>
<line x1="351.8347491167979" y1="384.8560702137439" x2="185.46437565201683" y2="188.40381532229196" stroke="rgb(17, 177, 134)" stroke-width="6.096912434924437" stroke-linecap="round" clip-path="url(#clip-0)"/>
<circle cx="399.99311338319836" cy="49.53348930890428" r="139.02529764620962" fill="rgb(137, 116, 89)" clip-path="url(#clip-0)"/>
<circle cx="464.0539972380111" cy="292.4225928457603" r="162.62559363482143" fill="rgb(231, 96, 29)" clip-path="url(#clip-0)"/>
<circle cx="206.46310318276795" cy="398.90679597408166" r="170.34829569707898" fill="rgb(37, 35, 37)" clip-path="url(#clip-0)"/>
<circle cx="290.30570110325755" cy="360.7636426202372" r="117.12241686080846" fill="rgb(17, 177, 134)" clip-path="url(#clip-0)"/>
<rect x="183.13770504178865" y="-211.84604444241725" width="339.36048801122047" height="461.5677124966284" fill="rgb(17, 177, 134)" />
<defs><clipPath id="clip-1"><rect x="183.13770504178865" y="-211.84604444241725" width="339.36048801122047" height="461.5677124966284"/></clipPath></defs>
<g clip-path="url(#clip-1)">
<line x1="364.8755924984372" y1="53.37140101753161" x2="349.28152875145395" y2="-69.68594750622384" stroke="rgb(137, 116, 89)" stroke-width="0.28875325144868963" stroke-linecap="round" clip-path="url(#clip-1)"/>
<line x1="413.09159831912064" y1="97.3515596125412" x2="483.9357777767985" y2="-62.14798784809909" stroke="rgb(231, 96, 29)" stroke-width="4.769538305620828" stroke-linecap="round" clip-path="url(#clip-1)"/>
<line x1="265.45161745500246" y1="21.133613508029356" x2="421.213608676317" y2="-53.78224569088658" stroke="rgb(17, 177, 134)" stroke-width="1.6197188028378562" stroke-linecap="round" clip-path="url(#clip-1)"/>
<line x1="282.9209433544681" y1="-82.98592280487344" x2="453.97121336782544" y2="-21.947149041599744" stroke="rgb(34, 215, 181)" stroke-width="0.08173134160284641" stroke-linecap="round" clip-path="url(#clip-1)"/>
<circle cx="475.2917827433851" cy="154.51625219575052" r="136.84453451559807" fill="rgb(231, 96, 29)" clip-path="url(#clip-1)"/>
<circle cx="270.2938991549659" cy="75.41279612392864" r="31.050112395043488" fill="rgb(17, 177, 134)" clip-path="url(#clip-1)"/>
<circle cx="318.9170077302706" cy="-133.06789132047442" r="113.03131592682068" fill="rgb(124, 164, 245)" clip-path="url(#clip-1)"/>
<rect x="176.4339813890861" y="-13.997362738716177" width="317.3982008966856" height="208.54788996045724" fill="rgb(137, 116, 89)" />
<defs><clipPath id="clip-2"><rect x="176.4339813890861" y="-13.997362738716177" width="317.3982008966856" height="208.54788996045724"/></clipPath></defs>
<g clip-path="url(#clip-2)">
<line x1="380.48314792883855" y1="9.669018313825429" x2="491.52446151327933" y2="38.939551619428514" stroke="rgb(17, 177, 134)" stroke-width="3.445897865428303" stroke-linecap="round" clip-path="url(#clip-2)"/>
<line x1="262.55190373593365" y1="191.63279385162485" x2="401.2079218696823" y2="130.72598429675952" stroke="rgb(124, 164, 245)" stroke-width="2.6822757242268334" stroke-linecap="round" clip-path="url(#clip-2)"/>
<line x1="227.51019296346266" y1="13.152572637581834" x2="375.55512855576114" y2="123.19216908009848" stroke="rgb(17, 177, 134)" stroke-width="3.3096419926312954" stroke-linecap="round" clip-path="url(#clip-2)"/>
<line x1="414.7837381491081" y1="159.45497047365586" x2="213.6346195449971" y2="78.99088332607116" stroke="rgb(34, 215, 181)" stroke-width="3.5422648683243505" stroke-linecap="round" clip-path="url(#clip-2)"/>
<circle cx="290.41212137727774" cy="98.04174464357217" r="76.19816119364016" fill="rgb(137, 116, 89)" clip-path="url(#clip-2)"/>
<circle cx="308.59385089501006" cy="101.69671854924015" r="59.106411784512275" fill="rgb(17, 177, 134)" clip-path="url(#clip-2)"/>
</g>
<rect x="443.24246063073053" y="-79.32543403895559" width="32.996890404679995" height="12.434517904178778" fill="rgb(231, 96, 29)" />
<defs><clipPath id="clip-3"><rect x="443.24246063073053" y="-79.32543403895559" width="32.996890404679995" height="12.434517904178778"/></clipPath></defs>
<g clip-path="url(#clip-3)">
<line x1="470.46693524175" y1="-68.78855731357677" x2="448.26535407638494" y2="-78.75550928785532" stroke="rgb(231, 96, 29)" stroke-width="0.21289529572095525" stroke-linecap="round" clip-path="url(#clip-3)"/>
<line x1="450.706374996333" y1="-73.42137408283317" x2="469.75489963438133" y2="-71.98690731835482" stroke="rgb(137, 116, 89)" stroke-width="0.17806411573935307" stroke-linecap="round" clip-path="url(#clip-3)"/>
<circle cx="450.7396303292141" cy="-68.77777175690295" r="6.1499644164971885" fill="rgb(124, 164, 245)" clip-path="url(#clip-3)"/>
<circle cx="457.1434615787857" cy="-75.78150391477638" r="1.6270760742803576" fill="rgb(37, 35, 37)" clip-path="url(#clip-3)"/>
<rect x="440.64400295399236" y="-68.89090911518214" width="5.830828831582477" height="3.9598341071294847" fill="rgb(231, 96, 29)" />
<defs><clipPath id="clip-4"><rect x="440.64400295399236" y="-68.89090911518214" width="5.830828831582477" height="3.9598341071294847"/></clipPath></defs>
<g clip-path="url(#clip-4)">
</g>
<rect x="436.237589964859" y="-57.97839819210397" width="18.843744229423518" height="5.0733948341598465" fill="rgb(137, 116, 89)" />
<defs><clipPath id="clip-5"><rect x="436.237589964859" y="-57.97839819210397" width="18.843744229423518" height="5.0733948341598465"/></clipPath></defs>
<g clip-path="url(#clip-5)">
</g>
<rect x="456.5212901819042" y="-62.883751851316305" width="30.21814574784645" height="7.716699231056362" fill="rgb(124, 164, 245)" />
<defs><clipPath id="clip-6"><rect x="456.5212901819042" y="-62.883751851316305" width="30.21814574784645" height="7.716699231056362"/></clipPath></defs>
<g clip-path="url(#clip-6)">
</g>
</g>
<rect x="42.3607755087578" y="-138.99435161913115" width="309.56764831293697" height="334.21902914080255" fill="rgb(137, 116, 89)" />
<defs><clipPath id="clip-7"><rect x="42.3607755087578" y="-138.99435161913115" width="309.56764831293697" height="334.21902914080255"/></clipPath></defs>
<g clip-path="url(#clip-7)">
<line x1="126.82259092770376" y1="3.011088188253467" x2="328.7404705309318" y2="37.93454528770408" stroke="rgb(124, 164, 245)" stroke-width="3.9387851486433503" stroke-linecap="round" clip-path="url(#clip-7)"/>
<line x1="341.77665320058696" y1="161.36391627728065" x2="341.1758174729527" y2="-129.56461202653287" stroke="rgb(34, 215, 181)" stroke-width="0.5956762930035474" stroke-linecap="round" clip-path="url(#clip-7)"/>
<circle cx="103.48418240370142" cy="-101.67391559707343" r="111.26081801173214" fill="rgb(124, 164, 245)" clip-path="url(#clip-7)"/>
<circle cx="135.91772361077216" cy="-110.09397483498819" r="60.29912952954913" fill="rgb(34, 215, 181)" clip-path="url(#clip-7)"/>
<circle cx="222.2025458658395" cy="35.68456955689885" r="83.43686974277068" fill="rgb(37, 35, 37)" clip-path="url(#clip-7)"/>
<circle cx="246.8119430649404" cy="-113.69094063792352" r="52.623331577400954" fill="rgb(137, 116, 89)" clip-path="url(#clip-7)"/>
<rect x="103.81826235381996" y="-105.84660231962224" width="183.11545124550696" height="117.69203078846257" fill="rgb(34, 215, 181)" />
<defs><clipPath id="clip-8"><rect x="103.81826235381996" y="-105.84660231962224" width="183.11545124550696" height="117.69203078846257"/></clipPath></defs>
<g clip-path="url(#clip-8)">
</g>
<rect x="97.62656832692977" y="24.240970135507034" width="47.17566283726758" height="99.88883487623697" fill="rgb(231, 96, 29)" />
<defs><clipPath id="clip-9"><rect x="97.62656832692977" y="24.240970135507034" width="47.17566283726758" height="99.88883487623697"/></clipPath></defs>
<g clip-path="url(#clip-9)">
</g>
</g>
</g>
</g>

       </svg>
