<svg version="1.1" xmlns="http://www.w3.org/2000/svg" viewBox="0 0 512 512" width="512" height="512">
        <rect x="0" y="0" width="512" height="512" fill="rgb(137, 116, 89)" />
<defs><clipPath id="clip-0"><rect x="0" y="0" width="512" height="512"/></clipPath></defs>
<g clip-path="url(#clip-0)">
<line x1="105.45697210604817" y1="433.7703947243935" x2="44.94429050550042" y2="459.3047572902007" stroke="rgb(17, 177, 134)" stroke-width="1.5719677674579893" stroke-linecap="round" clip-path="url(#clip-0)"/>
<line x1="295.6251149010986" y1="324.8088336887473" x2="498.0102236703501" y2="58.98872183576964" stroke="rgb(17, 177, 134)" stroke-width="0.22684814415689014" stroke-linecap="round" clip-path="url(#clip-0)"/>
<line x1="347.2595061226296" y1="230.21786231195728" x2="420.0750435797863" y2="36.484753542787814" stroke="rgb(124, 164, 245)" stroke-width="3.9828261168743047" stroke-linecap="round" clip-path="url(#clip-0)"/>
<circle cx="385.3768156127279" cy="240.40013265174514" r="119.3465166214202" fill="rgb(17, 177, 134)" clip-path="url(#clip-0)"/>
<circle cx="294.011146487228" cy="70.46718440903368" r="133.54438085587387" fill="rgb(137, 116, 89)" clip-path="url(#clip-0)"/>
<circle cx="254.7586126927044" cy="359.41420181021437" r="132.46865288281066" fill="rgb(34, 215, 181)" clip-path="url(#clip-0)"/>
<rect x="-12.545335208768677" y="243.6894538952847" width="329.69409368972254" height="361.18968670122393" fill="rgb(17, 177, 134)" />
<defs><clipPath id="clip-1"><rect x="-12.545335208768677" y="243.6894538952847" width="329.69409368972254" height="361.18968670122393"/></clipPath></defs>
<g clip-path="url(#clip-1)">
<line x1="271.1605601082894" y1="430.95815081204245" x2="48.19179425815618" y2="509.34824507622204" stroke="rgb(37, 35, 37)" stroke-width="0.683737097471372" stroke-linecap="round" clip-path="url(#clip-1)"/>
<line x1="153.51549925359413" y1="278.5224012455555" x2="183.09376989140995" y2="448.20934866669086" stroke="rgb(37, 35, 37)" stroke-width="4.128938344422595" stroke-linecap="round" clip-path="url(#clip-1)"/>
<rect x="253.6139244748287" y="142.86889856172243" width="29.51650395259695" height="310.7561793754848" fill="rgb(137, 116, 89)" />
<defs><clipPath id="clip-2"><rect x="253.6139244748287" y="142.86889856172243" width="29.51650395259695" height="310.7561793754848"/></clipPath></defs>
<g clip-path="url(#clip-2)">
<line x1="279.3006722919384" y1="354.4710521097475" x2="268.46932744620693" y2="277.187914532551" stroke="rgb(17, 177, 134)" stroke-width="2.4080542236415337" stroke-linecap="round" clip-path="url(#clip-2)"/>
<line x1="255.99257861146341" y1="210.07919448599085" x2="258.50751518243413" y2="425.69830295179406" stroke="rgb(17, 177, 134)" stroke-width="1.8698061782238247" stroke-linecap="round" clip-path="url(#clip-2)"/>
<line x1="267.3228750255515" y1="228.31571477062153" x2="277.840534037569" y2="277.9057445581719" stroke="rgb(17, 177, 134)" stroke-width="0.25045098208865446" stroke-linecap="round" clip-path="url(#clip-2)"/>
<circle cx="258.06096429327187" cy="145.03660626956992" r="7.751082291856445" fill="rgb(231, 96, 29)" clip-path="url(#clip-2)"/>
<circle cx="278.31683834792835" cy="195.1338128676864" r="32.00469644786731" fill="rgb(137, 116, 89)" clip-path="url(#clip-2)"/>
</g>
</g>
<rect x="191.526393278297" y="425.4326995243363" width="368.4083664006123" height="120.53233140141123" fill="rgb(231, 96, 29)" />
<defs><clipPath id="clip-3"><rect x="191.526393278297" y="425.4326995243363" width="368.4083664006123" height="120.53233140141123"/></clipPath></defs>
<g clip-path="url(#clip-3)">
<circle cx="355.3576100789175" cy="477.60651408897235" r="62.17390779082668" fill="rgb(37, 35, 37)" clip-path="url(#clip-3)"/>
<circle cx="284.837200511611" cy="491.9666683735179" r="39.25304527708625" fill="rgb(231, 96, 29)" clip-path="url(#clip-3)"/>
<circle cx="396.564280634896" cy="538.1930943260184" r="42.973838277704516" fill="rgb(34, 215, 181)" clip-path="url(#clip-3)"/>
<circle cx="470.51551161967774" cy="513.7190081660369" r="92.4591957590282" fill="rgb(231, 96, 29)" clip-path="url(#clip-3)"/>
<rect x="171.61830032263262" y="711.604641530163" width="304.81470205954275" height="74.08142667429328" fill="rgb(37, 35, 37)" />
<defs><clipPath id="clip-4"><rect x="171.61830032263262" y="711.604641530163" width="304.81470205954275" height="74.08142667429328"/></clipPath></defs>
<g clip-path="url(#clip-4)">
<line x1="196.61337825317216" y1="734.1412433655908" x2="286.8612394919961" y2="723.8974283400337" stroke="rgb(124, 164, 245)" stroke-width="0.30069774832568025" stroke-linecap="round" clip-path="url(#clip-4)"/>
<line x1="229.82326651207325" y1="739.8374784074983" x2="306.4419736784495" y2="729.9230767335233" stroke="rgb(37, 35, 37)" stroke-width="0.5937829467391849" stroke-linecap="round" clip-path="url(#clip-4)"/>
<line x1="174.03162205747208" y1="763.1489686660233" x2="316.99910332579645" y2="784.1979800778739" stroke="rgb(137, 116, 89)" stroke-width="1.2759429752834084" stroke-linecap="round" clip-path="url(#clip-4)"/>
<line x1="473.5439551069537" y1="718.3845431261908" x2="380.77409234865223" y2="769.1524330641714" stroke="rgb(231, 96, 29)" stroke-width="0.6586861906069708" stroke-linecap="round" clip-path="url(#clip-4)"/>
<circle cx="401.2306396297225" cy="715.8896681186277" r="46.80304193392514" fill="rgb(231, 96, 29)" clip-path="url(#clip-4)"/>
<circle cx="228.68010607610788" cy="720.1663113058555" r="73.36050492755929" fill="rgb(37, 35, 37)" clip-path="url(#clip-4)"/>
<circle cx="382.5389604066703" cy="759.718103885369" r="49.211666077772904" fill="rgb(37, 35, 37)" clip-path="url(#clip-4)"/>
<circle cx="359.1711211165565" cy="768.3897806022956" r="25.43706420416884" fill="rgb(17, 177, 134)" clip-path="url(#clip-4)"/>
<rect x="241.57818053599047" y="848.7195414682059" width="0.8139564030686471" height="28.943973544307173" fill="rgb(137, 116, 89)" />
<defs><clipPath id="clip-5"><rect x="241.57818053599047" y="848.7195414682059" width="0.8139564030686471" height="28.943973544307173"/></clipPath></defs>
<g clip-path="url(#clip-5)">
</g>
<rect x="385.45561586967176" y="996.1002917965726" width="50.26828696379618" height="32.825459508819435" fill="rgb(17, 177, 134)" />
<defs><clipPath id="clip-6"><rect x="385.45561586967176" y="996.1002917965726" width="50.26828696379618" height="32.825459508819435"/></clipPath></defs>
<g clip-path="url(#clip-6)">
</g>
<rect x="115.71999420081795" y="926.4015798328744" width="303.07082678845177" height="4.6554851453135475" fill="rgb(231, 96, 29)" />
<defs><clipPath id="clip-7"><rect x="115.71999420081795" y="926.4015798328744" width="303.07082678845177" height="4.6554851453135475"/></clipPath></defs>
<g clip-path="url(#clip-7)">
</g>
</g>
<rect x="201.38344363772867" y="702.0919041469806" width="180.66158596996746" height="99.91873012983562" fill="rgb(231, 96, 29)" />
<defs><clipPath id="clip-8"><rect x="201.38344363772867" y="702.0919041469806" width="180.66158596996746" height="99.91873012983562"/></clipPath></defs>
<g clip-path="url(#clip-8)">
<circle cx="294.8926001218352" cy="707.0105954834052" r="8.27643399823399" fill="rgb(137, 116, 89)" clip-path="url(#clip-8)"/>
<circle cx="368.3969665093734" cy="785.7385605863647" r="2.4109821715219493" fill="rgb(34, 215, 181)" clip-path="url(#clip-8)"/>
<circle cx="367.7927361061064" cy="787.763923534798" r="39.97145453927288" fill="rgb(231, 96, 29)" clip-path="url(#clip-8)"/>
<rect x="256.7812690682607" y="764.6548101596368" width="169.6785634150661" height="30.221294389978993" fill="rgb(124, 164, 245)" />
<defs><clipPath id="clip-9"><rect x="256.7812690682607" y="764.6548101596368" width="169.6785634150661" height="30.221294389978993"/></clipPath></defs>
<g clip-path="url(#clip-9)">
</g>
<rect x="315.50392374659856" y="725.6904464690514" width="76.35904241055744" height="45.92606695867261" fill="rgb(137, 116, 89)" />
<defs><clipPath id="clip-10"><rect x="315.50392374659856" y="725.6904464690514" width="76.35904241055744" height="45.92606695867261"/></clipPath></defs>
<g clip-path="url(#clip-10)">
</g>
</g>
<rect x="334.16885926637156" y="440.5078612845606" width="124.77031964941486" height="12.86100952043738" fill="rgb(231, 96, 29)" />
<defs><clipPath id="clip-11"><rect x="334.16885926637156" y="440.5078612845606" width="124.77031964941486" height="12.86100952043738"/></clipPath></defs>
<g clip-path="url(#clip-11)">
<line x1="456.04055572064664" y1="444.55457272436644" x2="443.6147433560196" y2="453.3549160021336" stroke="rgb(34, 215, 181)" stroke-width="0.07295976624451331" stroke-linecap="round" clip-path="url(#clip-11)"/>
<line x1="416.69351222089625" y1="443.4113512794945" x2="437.2427969530889" y2="451.2663029076814" stroke="rgb(17, 177, 134)" stroke-width="0.7674819489073396" stroke-linecap="round" clip-path="url(#clip-11)"/>
<line x1="379.66155776247547" y1="445.8179914111538" x2="402.1123586400634" y2="449.5143139483395" stroke="rgb(231, 96, 29)" stroke-width="1.0160161953916167" stroke-linecap="round" clip-path="url(#clip-11)"/>
<line x1="373.7800380510871" y1="453.11614165585223" x2="373.1377708905085" y2="453.3064866796811" stroke="rgb(137, 116, 89)" stroke-width="1.0785080843217012" stroke-linecap="round" clip-path="url(#clip-11)"/>
<circle cx="367.67853752387066" cy="451.88778657937877" r="27.440393576698106" fill="rgb(17, 177, 134)" clip-path="url(#clip-11)"/>
<rect x="406.4338531246475" y="538.1660457761715" width="16.531160795605352" height="11.23838116303597" fill="rgb(137, 116, 89)" />
<defs><clipPath id="clip-12"><rect x="406.4338531246475" y="538.1660457761715" width="16.531160795605352" height="11.23838116303597"/></clipPath></defs>
<g clip-path="url(#clip-12)">
</g>
<rect x="351.11787513858377" y="525.0786141035001" width="57.73837705547533" height="5.989760029501441" fill="rgb(17, 177, 134)" />
<defs><clipPath id="clip-13"><rect x="351.11787513858377" y="525.0786141035001" width="57.73837705547533" height="5.989760029501441"/></clipPath></defs>
<g clip-path="url(#clip-13)">
</g>
<rect x="379.647392679879" y="521.9749993207234" width="98.72893746946053" height="3.5484165866206454" fill="rgb(37, 35, 37)" />
<defs><clipPath id="clip-14"><rect x="379.647392679879" y="521.9749993207234" width="98.72893746946053" height="3.5484165866206454"/></clipPath></defs>
<g clip-path="url(#clip-14)">
</g>
</g>
</g>
</g>

       </svg>
