<svg version="1.1" xmlns="http://www.w3.org/2000/svg" viewBox="0 0 512 512" width="512" height="512">
        <rect x="0" y="0" width="512" height="512" fill="rgb(124, 164, 245)" />
<defs><clipPath id="clip-0"><rect x="0" y="0" width="512" height="512"/></clipPath></defs>
<g clip-path="url(#clip-0)">
<line x1="486.01650574480976" y1="269.9271933493811" x2="41.97173424085605" y2="497.4792466087861" stroke="rgb(34, 215, 181)" stroke-width="6.443971072173577" stroke-linecap="round" clip-path="url(#clip-0)"/>
<line x1="228.87995771866184" y1="473.72935201771685" x2="429.9452099146226" y2="137.4587895012031" stroke="rgb(37, 35, 37)" stroke-width="0.7166166766370594" stroke-linecap="round" clip-path="url(#clip-0)"/>
<circle cx="400.93076282702697" cy="30.71166384185318" r="107.43565506954708" fill="rgb(231, 96, 29)" clip-path="url(#clip-0)"/>
<circle cx="244.24429771049256" cy="65.57729492718153" r="141.71552046014122" fill="rgb(124, 164, 245)" clip-path="url(#clip-0)"/>
<circle cx="291.35104165057555" cy="497.2422744718462" r="137.92260661543534" fill="rgb(37, 35, 37)" clip-path="url(#clip-0)"/>
<rect x="240.80660924149157" y="-214.57642943133013" width="387.77184004993296" height="467.3027832101123" fill="rgb(137, 116, 89)" />
<defs><clipPath id="clip-1"><rect x="240.80660924149157" y="-214.57642943133013" width="387.77184004993296" height="467.3027832101123"/></clipPath></defs>
<g clip-path="url(#clip-1)">
<line x1="445.472989708719" y1="-186.62482586241111" x2="402.90864254975907" y2="-169.32757850101115" stroke="rgb(231, 96, 29)" stroke-width="1.3616877125970015" stroke-linecap="round" clip-path="url(#clip-1)"/>
<line x1="283.46376211707695" y1="-214.28003066028757" x2="594.0225222728151" y2="12.005302268097978" stroke="rgb(124, 164, 245)" stroke-width="1.5052274745996699" stroke-linecap="round" clip-path="url(#clip-1)"/>
<line x1="505.48026851171016" y1="-32.95284353893163" x2="274.5137189794059" y2="-14.72225084134385" stroke="rgb(231, 96, 29)" stroke-width="1.5129933188687383" stroke-linecap="round" clip-path="url(#clip-1)"/>
<circle cx="570.4719829747354" cy="-141.64557947385924" r="60.07017007096088" fill="rgb(17, 177, 134)" clip-path="url(#clip-1)"/>
<circle cx="396.97413711445284" cy="60.025086499650826" r="117.92599876489639" fill="rgb(34, 215, 181)" clip-path="url(#clip-1)"/>
<circle cx="376.0074949008828" cy="-20.511933712016287" r="131.7905048585866" fill="rgb(37, 35, 37)" clip-path="url(#clip-1)"/>
<circle cx="621.7794392540442" cy="91.00449199226804" r="54.58045931642137" fill="rgb(17, 177, 134)" clip-path="url(#clip-1)"/>
<rect x="491.6998906239435" y="48.238562707649336" width="158.8909142522025" height="78.69198397367765" fill="rgb(34, 215, 181)" />
<defs><clipPath id="clip-2"><rect x="491.6998906239435" y="48.238562707649336" width="158.8909142522025" height="78.69198397367765"/></clipPath></defs>
<g clip-path="url(#clip-2)">
<line x1="507.48650126003673" y1="60.279412188696575" x2="525.9720442581586" y2="66.63483394806809" stroke="rgb(124, 164, 245)" stroke-width="0.12835012704691928" stroke-linecap="round" clip-path="url(#clip-2)"/>
<line x1="527.9051882300665" y1="93.41850565658439" x2="532.7055326276195" y2="87.44373569601565" stroke="rgb(231, 96, 29)" stroke-width="0.5177236725465693" stroke-linecap="round" clip-path="url(#clip-2)"/>
<line x1="604.8623419959299" y1="116.84583633191477" x2="562.1348983619143" y2="94.1403633036019" stroke="rgb(17, 177, 134)" stroke-width="0.114601855975444" stroke-linecap="round" clip-path="url(#clip-2)"/>
<line x1="614.8216842521059" y1="57.95891150447744" x2="567.8005081422173" y2="115.9797797209797" stroke="rgb(124, 164, 245)" stroke-width="0.4914287865363613" stroke-linecap="round" clip-path="url(#clip-2)"/>
<circle cx="532.2712221786358" cy="122.76083370287185" r="40.371495105158786" fill="rgb(231, 96, 29)" clip-path="url(#clip-2)"/>
<circle cx="560.0120912281324" cy="65.65867392811691" r="33.94822084135792" fill="rgb(37, 35, 37)" clip-path="url(#clip-2)"/>
<circle cx="546.895928608896" cy="91.30024826742442" r="21.14272434381111" fill="rgb(37, 35, 37)" clip-path="url(#clip-2)"/>
<circle cx="522.7435884904498" cy="105.99919753921708" r="42.143099014405294" fill="rgb(34, 215, 181)" clip-path="url(#clip-2)"/>
<circle cx="637.0018759088377" cy="80.08767612141612" r="43.902205273164235" fill="rgb(137, 116, 89)" clip-path="url(#clip-2)"/>
<rect x="509.5018153435045" y="35.93860082629776" width="54.28176534514387" height="40.2401633318931" fill="rgb(37, 35, 37)" />
<defs><clipPath id="clip-3"><rect x="509.5018153435045" y="35.93860082629776" width="54.28176534514387" height="40.2401633318931"/></clipPath></defs>
<g clip-path="url(#clip-3)">
</g>
</g>
<rect x="206.20791558579145" y="-115.98685318091732" width="241.39684945560316" height="214.62839931086964" fill="rgb(137, 116, 89)" />
<defs><clipPath id="clip-4"><rect x="206.20791558579145" y="-115.98685318091732" width="241.39684945560316" height="214.62839931086964"/></clipPath></defs>
<g clip-path="url(#clip-4)">
<line x1="319.82257598430925" y1="42.9907526397087" x2="208.90935419337825" y2="6.513784865133289" stroke="rgb(231, 96, 29)" stroke-width="0.060220073080145785" stroke-linecap="round" clip-path="url(#clip-4)"/>
<circle cx="321.25083397237125" cy="12.466959157870988" r="38.350012529210375" fill="rgb(37, 35, 37)" clip-path="url(#clip-4)"/>
<circle cx="284.5403830441222" cy="-70.87665081416921" r="21.21068434203043" fill="rgb(17, 177, 134)" clip-path="url(#clip-4)"/>
<circle cx="263.8734040264071" cy="26.326262022971505" r="59.15444085300484" fill="rgb(231, 96, 29)" clip-path="url(#clip-4)"/>
<circle cx="299.71503256681655" cy="93.93284534683089" r="61.67355255086189" fill="rgb(17, 177, 134)" clip-path="url(#clip-4)"/>
<circle cx="348.9245277401501" cy="29.07249797644603" r="38.67529643300635" fill="rgb(34, 215, 181)" clip-path="url(#clip-4)"/>
<rect x="231.8656907856818" y="-218.76200139687916" width="218.72098495945752" height="211.48464401759486" fill="rgb(34, 215, 181)" />
<defs><clipPath id="clip-5"><rect x="231.8656907856818" y="-218.76200139687916" width="218.72098495945752" height="211.48464401759486"/></clipPath></defs>
<g clip-path="url(#clip-5)">
</g>
<rect x="355.05072459154167" y="1.4889070235748463" width="56.16997394768106" height="51.06117568821121" fill="rgb(124, 164, 245)" />
<defs><clipPath id="clip-6"><rect x="355.05072459154167" y="1.4889070235748463" width="56.16997394768106" height="51.06117568821121"/></clipPath></defs>
<g clip-path="url(#clip-6)">
</g>
<rect x="229.255414361158" y="-88.79215389905768" width="38.05138608078317" height="15.851890575259253" fill="rgb(137, 116, 89)" />
<defs><clipPath id="clip-7"><rect x="229.255414361158" y="-88.79215389905768" width="38.05138608078317" height="15.851890575259253"/></clipPath></defs>
<g clip-path="url(#clip-7)">
</g>
</g>
</g>
<rect x="217.84117502265627" y="228.08952186901624" width="453.7525012318438" height="95.42388953305903" fill="rgb(34, 215, 181)" />
<defs><clipPath id="clip-8"><rect x="217.84117502265627" y="228.08952186901624" width="453.7525012318438" height="95.42388953305903"/></clipPath></defs>
<g clip-path="url(#clip-8)">
<line x1="382.94916183101066" y1="288.3192733174804" x2="273.6412225966641" y2="259.2488897144955" stroke="rgb(17, 177, 134)" stroke-width="0.7971590450789364" stroke-linecap="round" clip-path="url(#clip-8)"/>
<line x1="464.1598758254132" y1="272.336239100228" x2="613.2830275575325" y2="304.59990221261296" stroke="rgb(17, 177, 134)" stroke-width="0.09248147487581773" stroke-linecap="round" clip-path="url(#clip-8)"/>
<circle cx="256.9135945457199" cy="254.16294543094045" r="71.5978077654463" fill="rgb(34, 215, 181)" clip-path="url(#clip-8)"/>
<circle cx="394.9195404923363" cy="247.3089218229177" r="43.11785886983782" fill="rgb(124, 164, 245)" clip-path="url(#clip-8)"/>
<circle cx="331.8665562151062" cy="293.8485302448067" r="84.06643406749554" fill="rgb(231, 96, 29)" clip-path="url(#clip-8)"/>
<circle cx="434.2717415777733" cy="280.75697590775474" r="94.23804842799757" fill="rgb(37, 35, 37)" clip-path="url(#clip-8)"/>
</g>
</g>

       </svg>
