<svg version="1.1" xmlns="http://www.w3.org/2000/svg" viewBox="0 0 512 512" width="512" height="512">
        <rect x="0" y="0" width="512" height="512" fill="rgb(37, 35, 37)" />
<defs><clipPath id="clip-0"><rect x="0" y="0" width="512" height="512"/></clipPath></defs>
<g clip-path="url(#clip-0)">
<line x1="193.559618426596" y1="28.92716636469669" x2="435.0009330717243" y2="103.95764410959976" stroke="rgb(17, 177, 134)" stroke-width="1.6606887373268233" stroke-linecap="round" clip-path="url(#clip-0)"/>
<circle cx="377.0482110093742" cy="381.859503553931" r="163.93796900651108" fill="rgb(124, 164, 245)" clip-path="url(#clip-0)"/>
<circle cx="251.06080648624106" cy="13.812109465340143" r="48.80334799376577" fill="rgb(17, 177, 134)" clip-path="url(#clip-0)"/>
<circle cx="179.3665427749803" cy="60.27464835312679" r="177.6433364516583" fill="rgb(137, 116, 89)" clip-path="url(#clip-0)"/>
<circle cx="224.80991426675274" cy="243.47753761087023" r="99.2387069516902" fill="rgb(137, 116, 89)" clip-path="url(#clip-0)"/>
<circle cx="379.94519211857425" cy="511.6065857718985" r="68.43465549546906" fill="rgb(34, 215, 181)" clip-path="url(#clip-0)"/>
<rect x="226.95461838765806" y="-146.13623604993614" width="312.6272061167881" height="389.29814631201566" fill="rgb(34, 215, 181)" />
<defs><clipPath id="clip-1"><rect x="226.95461838765806" y="-146.13623604993614" width="312.6272061167881" height="389.29814631201566"/></clipPath></defs>
<g clip-path="url(#clip-1)">
<circle cx="242.03315012468255" cy="19.571547426632463" r="45.388068199683566" fill="rgb(137, 116, 89)" clip-path="url(#clip-1)"/>
<circle cx="326.6903614425428" cy="173.50956445587212" r="33.76197645402234" fill="rgb(17, 177, 134)" clip-path="url(#clip-1)"/>
<rect x="325.74186549235765" y="-87.9362458823656" width="139.5054938382741" height="7.613272056181302" fill="rgb(124, 164, 245)" />
<defs><clipPath id="clip-2"><rect x="325.74186549235765" y="-87.9362458823656" width="139.5054938382741" height="7.613272056181302"/></clipPath></defs>
<g clip-path="url(#clip-2)">
<line x1="397.07772318088774" y1="-84.984622337574" x2="405.23764785332395" y2="-84.67012999289908" stroke="rgb(231, 96, 29)" stroke-width="0.8300268591368599" stroke-linecap="round" clip-path="url(#clip-2)"/>
<line x1="419.3440558076361" y1="-82.36822777063188" x2="456.9096875549088" y2="-81.4161227179981" stroke="rgb(17, 177, 134)" stroke-width="0.653448353028738" stroke-linecap="round" clip-path="url(#clip-2)"/>
<line x1="457.3592941785472" y1="-84.34902334993123" x2="380.27235763778697" y2="-81.75062303853765" stroke="rgb(137, 116, 89)" stroke-width="0.5258869787557579" stroke-linecap="round" clip-path="url(#clip-2)"/>
<line x1="360.9919566906535" y1="-86.96200737306133" x2="424.84736080692187" y2="-87.6824956893125" stroke="rgb(231, 96, 29)" stroke-width="0.5949740063588949" stroke-linecap="round" clip-path="url(#clip-2)"/>
<line x1="435.1954048126834" y1="-82.18074593417573" x2="340.4307423746293" y2="-85.22878295319471" stroke="rgb(34, 215, 181)" stroke-width="0.15017618930234267" stroke-linecap="round" clip-path="url(#clip-2)"/>
<circle cx="390.2470484759781" cy="-87.56032338083334" r="9.736513042772005" fill="rgb(124, 164, 245)" clip-path="url(#clip-2)"/>
<circle cx="337.55231902636694" cy="-83.20692483972599" r="1.5762386865315585" fill="rgb(37, 35, 37)" clip-path="url(#clip-2)"/>
<circle cx="335.4304295915854" cy="-80.60628023002495" r="29.041547146463287" fill="rgb(34, 215, 181)" clip-path="url(#clip-2)"/>
<rect x="419.3163110488236" y="-37.56644596517503" width="15.742731465706504" height="3.115709676159432" fill="rgb(124, 164, 245)" />
<defs><clipPath id="clip-3"><rect x="419.3163110488236" y="-37.56644596517503" width="15.742731465706504" height="3.115709676159432"/></clipPath></defs>
<g clip-path="url(#clip-3)">
</g>
<rect x="310.0071656592006" y="-66.02448787327106" width="92.64687980923311" height="7.240550053841332" fill="rgb(231, 96, 29)" />
<defs><clipPath id="clip-4"><rect x="310.0071656592006" y="-66.02448787327106" width="92.64687980923311" height="7.240550053841332"/></clipPath></defs>
<g clip-path="url(#clip-4)">
</g>
<rect x="397.2923307561354" y="47.77458211558964" width="91.02922226337326" height="0.4523664881620338" fill="rgb(34, 215, 181)" />
<defs><clipPath id="clip-5"><rect x="397.2923307561354" y="47.77458211558964" width="91.02922226337326" height="0.4523664881620338"/></clipPath></defs>
<g clip-path="url(#clip-5)">
</g>
</g>
<rect x="272.08163010507633" y="-67.89376488752134" width="246.26664922477818" height="250.5390026497497" fill="rgb(37, 35, 37)" />
<defs><clipPath id="clip-6"><rect x="272.08163010507633" y="-67.89376488752134" width="246.26664922477818" height="250.5390026497497"/></clipPath></defs>
<g clip-path="url(#clip-6)">
<circle cx="373.10895700487913" cy="-11.126713623074075" r="35.3207086080734" fill="rgb(17, 177, 134)" clip-path="url(#clip-6)"/>
<circle cx="343.57856907424537" cy="125.59936297718917" r="72.18396025362324" fill="rgb(17, 177, 134)" clip-path="url(#clip-6)"/>
<rect x="460.48684020650745" y="-26.279761067224875" width="7.732132015673578" height="111.8533795513665" fill="rgb(37, 35, 37)" />
<defs><clipPath id="clip-7"><rect x="460.48684020650745" y="-26.279761067224875" width="7.732132015673578" height="111.8533795513665"/></clipPath></defs>
<g clip-path="url(#clip-7)">
</g>
<rect x="442.55486206066473" y="-96.89927215626292" width="129.13133027831137" height="121.28871777076087" fill="rgb(137, 116, 89)" />
<defs><clipPath id="clip-8"><rect x="442.55486206066473" y="-96.89927215626292" width="129.13133027831137" height="121.28871777076087"/></clipPath></defs>
<g clip-path="url(#clip-8)">
</g>
<rect x="379.4313332244391" y="-80.95533115519265" width="78.64824806440285" height="100.38902035666078" fill="rgb(37, 35, 37)" />
<defs><clipPath id="clip-9"><rect x="379.4313332244391" y="-80.95533115519265" width="78.64824806440285" height="100.38902035666078"/></clipPath></defs>
<g clip-path="url(#clip-9)">
</g>
</g>
<rect x="355.46797336789837" y="82.29522567839459" width="59.3948127700889" height="152.90850820932843" fill="rgb(37, 35, 37)" />
<defs><clipPath id="clip-10"><rect x="355.46797336789837" y="82.29522567839459" width="59.3948127700889" height="152.90850820932843"/></clipPath></defs>
<g clip-path="url(#clip-10)">
<line x1="365.8703957579907" y1="149.1298735437864" x2="384.77190997707413" y2="215.57048298993615" stroke="rgb(17, 177, 134)" stroke-width="0.6995429551735622" stroke-linecap="round" clip-path="url(#clip-10)"/>
<line x1="388.56048110436825" y1="162.76880555621406" x2="385.333974396125" y2="97.31850606681303" stroke="rgb(37, 35, 37)" stroke-width="1.5409350909091333" stroke-linecap="round" clip-path="url(#clip-10)"/>
<line x1="373.5254611527548" y1="186.16291794412285" x2="414.36403579581395" y2="131.11023837534825" stroke="rgb(37, 35, 37)" stroke-width="1.5112448203047035" stroke-linecap="round" clip-path="url(#clip-10)"/>
<circle cx="375.6080253892802" cy="176.53201064296343" r="12.228759842748103" fill="rgb(137, 116, 89)" clip-path="url(#clip-10)"/>
<circle cx="370.1385222905329" cy="207.29334161746996" r="7.956052841661553" fill="rgb(137, 116, 89)" clip-path="url(#clip-10)"/>
<circle cx="395.7881973829492" cy="109.12123261733021" r="10.797113421379443" fill="rgb(17, 177, 134)" clip-path="url(#clip-10)"/>
<circle cx="379.96141648651144" cy="109.83825230460282" r="27.581232001749658" fill="rgb(17, 177, 134)" clip-path="url(#clip-10)"/>
<circle cx="358.47297585994136" cy="178.3556408015998" r="27.27005772096326" fill="rgb(37, 35, 37)" clip-path="url(#clip-10)"/>
<rect x="395.2714597075459" y="88.1807737482139" width="11.17455780120446" height="59.78427604074025" fill="rgb(231, 96, 29)" />
<defs><clipPath id="clip-11"><rect x="395.2714597075459" y="88.1807737482139" width="11.17455780120446" height="59.78427604074025"/></clipPath></defs>
<g clip-path="url(#clip-11)">
</g>
<rect x="355.92885370392264" y="73.80806669792952" width="56.7729578483204" height="79.54901368369339" fill="rgb(124, 164, 245)" />
<defs><clipPath id="clip-12"><rect x="355.92885370392264" y="73.80806669792952" width="56.7729578483204" height="79.54901368369339"/></clipPath></defs>
<g clip-path="url(#clip-12)">
</g>
<rect x="358.1430585936667" y="54.48476335759425" width="23.135191386122045" height="145.55897571700078" fill="rgb(17, 177, 134)" />
<defs><clipPath id="clip-13"><rect x="358.1430585936667" y="54.48476335759425" width="23.135191386122045" height="145.55897571700078"/></clipPath></defs>
<g clip-path="url(#clip-13)">
</g>
</g>
</g>
</g>

       </svg>
